<?xml version="1.0" encoding="UTF-8" standalone="no"?>
<svg
   xmlns:dc="http://purl.org/dc/elements/1.1/"
   xmlns:cc="http://creativecommons.org/ns#"
   xmlns:rdf="http://www.w3.org/1999/02/22-rdf-syntax-ns#"
   xmlns:svg="http://www.w3.org/2000/svg"
   xmlns="http://www.w3.org/2000/svg"
   xmlns:sodipodi="http://sodipodi.sourceforge.net/DTD/sodipodi-0.dtd"
   xmlns:inkscape="http://www.inkscape.org/namespaces/inkscape"
   id="svg4670"
   sodipodi:docname="logo.svg"
   viewBox="0 0 1027.559 177.16535"
   version="1.1"
   inkscape:version="1.0.1 (3bc2e813f5, 2020-09-07)"
   width="290mm"
   height="50mm">
  <defs
     id="defs3394" />
  <sodipodi:namedview
     id="base"
     bordercolor="#666666"
     inkscape:pageshadow="2"
     inkscape:window-y="49"
     pagecolor="#ffffff"
     inkscape:window-maximized="0"
     inkscape:zoom="0.61567384"
     inkscape:window-x="0"
     inkscape:window-height="1029"
     showgrid="false"
     borderopacity="1.0"
     inkscape:current-layer="g3345"
     inkscape:cx="371.38693"
     inkscape:cy="104.42643"
     inkscape:window-width="1916"
     inkscape:pageopacity="0.0"
     inkscape:document-units="mm"
     units="mm"
     showguides="true"
     inkscape:guide-bbox="true"
     inkscape:document-rotation="0" />
  <g
     id="layer1"
     inkscape:label="Layer 1"
     inkscape:groupmode="layer"
     transform="translate(-7.5443,10.625328)">
    <g
       id="g3345"
       transform="matrix(6.1933291,0,0,6.1933291,-627.55266,-409.63232)">
      <rect
         ry="0"
         y="71.941574"
         x="105.66481"
         height="18.356487"
         width="17.566961"
         id="rect4761"
         style="fill:none;fill-opacity:1;stroke:#ffffff;stroke-width:1.71635008;stroke-linecap:butt;stroke-linejoin:round;stroke-miterlimit:0;stroke-dasharray:none;stroke-opacity:1" />
      <path
         sodipodi:nodetypes="csc"
         inkscape:connector-curvature="0"
         id="path4833"
         d="m 109.25326,80.151691 c 0,0 3.49984,5.856677 5.16377,5.721827 2.61185,-0.211676 10.20933,-18.459137 10.20933,-18.459137"
         style="fill:none;fill-rule:evenodd;stroke:#ffffff;stroke-width:2.28846669;stroke-linecap:round;stroke-linejoin:miter;stroke-miterlimit:4;stroke-dasharray:none;stroke-opacity:1" />
    </g>
    <flowRoot
       xml:space="preserve"
       id="flowRoot3336"
       style="font-style:normal;font-weight:normal;line-height:0.01%;font-family:sans-serif;letter-spacing:0px;word-spacing:0px;fill:#000000;fill-opacity:1;stroke:none;stroke-width:1px;stroke-linecap:butt;stroke-linejoin:miter;stroke-opacity:1"
       transform="translate(7.5443,-10.625336)"><flowRegion
         id="flowRegion3338"
         style="font-family:sans-serif"><rect
           id="rect3340"
           width="614.47577"
           height="181.72644"
           x="161.92746"
           y="12.409479"
           style="font-family:sans-serif" /></flowRegion><flowPara
         id="flowPara3342"
         style="font-size:125px;line-height:1.25;font-family:sans-serif">Helfertool--..</flowPara></flowRoot>
    <g
       aria-label="Helfertool"
       transform="translate(16.528534,-61.840449)"
       style="font-style:normal;font-variant:normal;font-weight:normal;font-stretch:normal;font-size:168.75px;line-height:0.01%;font-family:'Droid Sans Fallback';-inkscape-font-specification:'Droid Sans Fallback, Normal';font-variant-ligatures:normal;font-variant-caps:normal;font-variant-numeric:normal;font-feature-settings:normal;text-align:start;letter-spacing:0px;word-spacing:0px;writing-mode:lr-tb;text-anchor:start;fill:#ffffff;fill-opacity:1;stroke:none;stroke-width:1px;stroke-linecap:butt;stroke-linejoin:miter;stroke-opacity:1"
       id="flowRoot3344">
      <path
         d="m 192.56189,93.450806 h 16.64429 v 50.427244 h 60.47973 V 93.450806 H 286.3302 V 216.47021 h -16.64429 v -58.58459 h -60.47973 v 58.58459 h -16.64429 z"
         style="font-style:normal;font-variant:normal;font-weight:normal;font-stretch:normal;font-size:168.75px;line-height:1.25;font-family:'Droid Sans Fallback';-inkscape-font-specification:'Droid Sans Fallback, Normal';font-variant-ligatures:normal;font-variant-caps:normal;font-variant-numeric:normal;font-feature-settings:normal;text-align:start;writing-mode:lr-tb;text-anchor:start;fill:#ffffff;fill-opacity:1;stroke:none;stroke-opacity:1"
         id="path827" />
      <path
         d="m 397.73157,166.53735 v 7.41577 h -69.70825 q 0.98876,15.65552 9.39331,23.89527 8.48693,8.15735 23.56567,8.15735 8.73413,0 16.89148,-2.14234 8.23975,-2.14233 16.3147,-6.427 v 14.33716 q -8.15735,3.46069 -16.72669,5.27344 -8.56933,1.81274 -17.38586,1.81274 -22.08252,0 -35.01892,-12.854 -12.85401,-12.85401 -12.85401,-34.77173 0,-22.6593 12.19483,-35.92529 12.27722,-13.34839 33.04138,-13.34839 18.62183,0 29.41589,12.03003 10.87647,11.94763 10.87647,32.54699 z m -15.16114,-4.44946 q -0.16479,-12.44202 -7.00378,-19.85779 -6.75659,-7.41577 -17.96265,-7.41577 -12.68921,0 -20.35217,7.16858 -7.58057,7.16858 -8.73413,20.18738 z"
         style="font-style:normal;font-variant:normal;font-weight:normal;font-stretch:normal;font-size:168.75px;line-height:1.25;font-family:'Droid Sans Fallback';-inkscape-font-specification:'Droid Sans Fallback, Normal';font-variant-ligatures:normal;font-variant-caps:normal;font-variant-numeric:normal;font-feature-settings:normal;text-align:start;writing-mode:lr-tb;text-anchor:start;fill:#ffffff;fill-opacity:1;stroke:none;stroke-opacity:1"
         id="path829" />
      <path
         d="m 422.6156,88.259766 h 15.16113 V 216.47021 H 422.6156 Z"
         style="font-style:normal;font-variant:normal;font-weight:normal;font-stretch:normal;font-size:168.75px;line-height:1.25;font-family:'Droid Sans Fallback';-inkscape-font-specification:'Droid Sans Fallback, Normal';font-variant-ligatures:normal;font-variant-caps:normal;font-variant-numeric:normal;font-feature-settings:normal;text-align:start;writing-mode:lr-tb;text-anchor:start;fill:#ffffff;fill-opacity:1;stroke:none;stroke-opacity:1"
         id="path831" />
      <path
         d="m 516.13672,88.259766 v 12.606814 h -14.50195 q -8.15735,0 -11.37085,3.2959 -3.13111,3.29589 -3.13111,11.86523 v 8.15735 h 24.96643 v 11.78284 h -24.96643 v 80.50231 H 471.88928 V 135.9679 h -14.50195 v -11.78284 h 14.50195 v -6.427 q 0,-15.40833 7.16858,-22.412113 7.16858,-7.086181 22.7417,-7.086181 z"
         style="font-style:normal;font-variant:normal;font-weight:normal;font-stretch:normal;font-size:168.75px;line-height:1.25;font-family:'Droid Sans Fallback';-inkscape-font-specification:'Droid Sans Fallback, Normal';font-variant-ligatures:normal;font-variant-caps:normal;font-variant-numeric:normal;font-feature-settings:normal;text-align:start;writing-mode:lr-tb;text-anchor:start;fill:#ffffff;fill-opacity:1;stroke:none;stroke-opacity:1"
         id="path833" />
      <path
         d="m 607.6803,166.53735 v 7.41577 h -69.70825 q 0.98877,15.65552 9.39331,23.89527 8.48693,8.15735 23.56567,8.15735 8.73413,0 16.89148,-2.14234 8.23975,-2.14233 16.3147,-6.427 v 14.33716 q -8.15735,3.46069 -16.72669,5.27344 -8.56933,1.81274 -17.38586,1.81274 -22.08252,0 -35.01892,-12.854 -12.85401,-12.85401 -12.85401,-34.77173 0,-22.6593 12.19483,-35.92529 12.27722,-13.34839 33.04138,-13.34839 18.62183,0 29.41589,12.03003 10.87647,11.94763 10.87647,32.54699 z m -15.16113,-4.44946 q -0.1648,-12.44202 -7.00379,-19.85779 -6.75659,-7.41577 -17.96265,-7.41577 -12.6892,0 -20.35217,7.16858 -7.58056,7.16858 -8.73413,20.18738 z"
         style="font-style:normal;font-variant:normal;font-weight:normal;font-stretch:normal;font-size:168.75px;line-height:1.25;font-family:'Droid Sans Fallback';-inkscape-font-specification:'Droid Sans Fallback, Normal';font-variant-ligatures:normal;font-variant-caps:normal;font-variant-numeric:normal;font-feature-settings:normal;text-align:start;writing-mode:lr-tb;text-anchor:start;fill:#ffffff;fill-opacity:1;stroke:none;stroke-opacity:1"
         id="path835" />
      <path
         d="m 686.04028,138.35742 q -2.55432,-1.48315 -5.60302,-2.14233 -2.96631,-0.74158 -6.5918,-0.74158 -12.854,0 -19.77539,8.40454 -6.83899,8.32215 -6.83899,23.97766 v 48.6145 h -15.24353 v -92.28515 h 15.24353 v 14.33716 q 4.77905,-8.40454 12.44202,-12.44202 7.66296,-4.11987 18.62182,-4.11987 1.56555,0 3.4607,0.24719 1.89514,0.16479 4.20227,0.57678 z"
         style="font-style:normal;font-variant:normal;font-weight:normal;font-stretch:normal;font-size:168.75px;line-height:1.25;font-family:'Droid Sans Fallback';-inkscape-font-specification:'Droid Sans Fallback, Normal';font-variant-ligatures:normal;font-variant-caps:normal;font-variant-numeric:normal;font-feature-settings:normal;text-align:start;writing-mode:lr-tb;text-anchor:start;fill:#ffffff;fill-opacity:1;stroke:none;stroke-opacity:1"
         id="path837" />
      <path
         d="m 717.10413,97.982666 v 26.202394 h 31.22863 v 11.78284 h -31.22863 v 50.09765 q 0,11.28845 3.0487,14.50195 3.13111,3.21351 12.60681,3.21351 h 15.57312 v 12.6892 h -15.57312 q -17.55066,0 -24.22485,-6.50939 -6.67419,-6.5918 -6.67419,-23.89527 V 135.9679 H 690.73694 V 124.18506 H 701.8606 V 97.982666 Z"
         style="font-style:normal;font-variant:normal;font-weight:normal;font-stretch:normal;font-size:168.75px;line-height:1.25;font-family:'Droid Sans Fallback';-inkscape-font-specification:'Droid Sans Fallback, Normal';font-variant-ligatures:normal;font-variant-caps:normal;font-variant-numeric:normal;font-feature-settings:normal;text-align:start;writing-mode:lr-tb;text-anchor:start;fill:#ffffff;fill-opacity:1;stroke:none;stroke-opacity:1"
         id="path839" />
      <path
         d="m 804.11584,134.81433 q -12.19482,0 -19.281,9.55811 -7.08618,9.4757 -7.08618,26.03759 0,16.56189 7.00378,26.12 7.08618,9.47571 19.3634,9.47571 12.11243,0 19.19861,-9.55811 7.08618,-9.5581 7.08618,-26.0376 0,-16.39709 -7.08618,-25.9552 -7.08618,-9.6405 -19.19861,-9.6405 z m 0,-12.854 q 19.7754,0 31.06385,12.854 11.28845,12.854 11.28845,35.5957 0,22.65931 -11.28845,35.59571 -11.28845,12.854 -31.06385,12.854 -19.85778,0 -31.14624,-12.854 -11.20605,-12.9364 -11.20605,-35.59571 0,-22.7417 11.20605,-35.5957 11.28846,-12.854 31.14624,-12.854 z"
         style="font-style:normal;font-variant:normal;font-weight:normal;font-stretch:normal;font-size:168.75px;line-height:1.25;font-family:'Droid Sans Fallback';-inkscape-font-specification:'Droid Sans Fallback, Normal';font-variant-ligatures:normal;font-variant-caps:normal;font-variant-numeric:normal;font-feature-settings:normal;text-align:start;writing-mode:lr-tb;text-anchor:start;fill:#ffffff;fill-opacity:1;stroke:none;stroke-opacity:1"
         id="path841" />
      <path
         d="m 907.27747,134.81433 q -12.19483,0 -19.28101,9.55811 -7.08618,9.4757 -7.08618,26.03759 0,16.56189 7.00378,26.12 7.08618,9.47571 19.36341,9.47571 12.11242,0 19.1986,-9.55811 7.08619,-9.5581 7.08619,-26.0376 0,-16.39709 -7.08619,-25.9552 -7.08618,-9.6405 -19.1986,-9.6405 z m 0,-12.854 q 19.77539,0 31.06384,12.854 11.28845,12.854 11.28845,35.5957 0,22.65931 -11.28845,35.59571 -11.28845,12.854 -31.06384,12.854 -19.85779,0 -31.14624,-12.854 -11.20606,-12.9364 -11.20606,-35.59571 0,-22.7417 11.20606,-35.5957 11.28845,-12.854 31.14624,-12.854 z"
         style="font-style:normal;font-variant:normal;font-weight:normal;font-stretch:normal;font-size:168.75px;line-height:1.25;font-family:'Droid Sans Fallback';-inkscape-font-specification:'Droid Sans Fallback, Normal';font-variant-ligatures:normal;font-variant-caps:normal;font-variant-numeric:normal;font-feature-settings:normal;text-align:start;writing-mode:lr-tb;text-anchor:start;fill:#ffffff;fill-opacity:1;stroke:none;stroke-opacity:1"
         id="path843" />
      <path
         d="m 974.67859,88.259766 h 15.16113 V 216.47021 h -15.16113 z"
         style="font-style:normal;font-variant:normal;font-weight:normal;font-stretch:normal;font-size:168.75px;line-height:1.25;font-family:'Droid Sans Fallback';-inkscape-font-specification:'Droid Sans Fallback, Normal';font-variant-ligatures:normal;font-variant-caps:normal;font-variant-numeric:normal;font-feature-settings:normal;text-align:start;writing-mode:lr-tb;text-anchor:start;fill:#ffffff;fill-opacity:1;stroke:none;stroke-opacity:1"
         id="path845" />
    </g>
  </g>
  <metadata
     id="metadata10">
    <rdf:RDF>
      <cc:Work>
        <dc:format>image/svg+xml</dc:format>
        <dc:type
           rdf:resource="http://purl.org/dc/dcmitype/StillImage" />
        <cc:license
           rdf:resource="http://creativecommons.org/publicdomain/zero/1.0/" />
        <dc:publisher>
          <cc:Agent
             rdf:about="http://openclipart.org/">
            <dc:title>Openclipart</dc:title>
          </cc:Agent>
        </dc:publisher>
        <dc:title />
      </cc:Work>
      <cc:License
         rdf:about="http://creativecommons.org/publicdomain/zero/1.0/">
        <cc:permits
           rdf:resource="http://creativecommons.org/ns#Reproduction" />
        <cc:permits
           rdf:resource="http://creativecommons.org/ns#Distribution" />
        <cc:permits
           rdf:resource="http://creativecommons.org/ns#DerivativeWorks" />
      </cc:License>
    </rdf:RDF>
  </metadata>
</svg>
