<?xml version="1.0" encoding="UTF-8" standalone="no"?>
<svg
   xmlns:dc="http://purl.org/dc/elements/1.1/"
   xmlns:cc="http://creativecommons.org/ns#"
   xmlns:rdf="http://www.w3.org/1999/02/22-rdf-syntax-ns#"
   xmlns:svg="http://www.w3.org/2000/svg"
   xmlns="http://www.w3.org/2000/svg"
   xmlns:sodipodi="http://sodipodi.sourceforge.net/DTD/sodipodi-0.dtd"
   xmlns:inkscape="http://www.inkscape.org/namespaces/inkscape"
   id="svg2"
   viewBox="0 0 74 100"
   version="1.1"
   sodipodi:docname="pdf.svg"
   inkscape:version="0.92.4 (5da689c313, 2019-01-14)">
  <sodipodi:namedview
     pagecolor="#ffffff"
     bordercolor="#666666"
     borderopacity="1"
     objecttolerance="10"
     gridtolerance="10"
     guidetolerance="10"
     inkscape:pageopacity="0"
     inkscape:pageshadow="2"
     inkscape:window-width="1916"
     inkscape:window-height="1029"
     id="namedview22"
     showgrid="false"
     inkscape:zoom="2.36"
     inkscape:cx="49.144444"
     inkscape:cy="55.351316"
     inkscape:window-x="0"
     inkscape:window-y="49"
     inkscape:window-maximized="0"
     inkscape:current-layer="g3912" />
  <defs
     id="defs4">
    <linearGradient
       id="linearGradient3046"
       x1="105"
       gradientUnits="userSpaceOnUse"
       y1="123"
       gradientTransform="translate(2 922.36)"
       x2="-80"
       y2="-112">
      <stop
         id="stop3602"
         stop-color="#e6e6e6"
         offset="0" />
      <stop
         id="stop3604"
         stop-color="#f9f9f9"
         offset="1" />
    </linearGradient>
    <linearGradient
       id="linearGradient3048"
       x1="93"
       gradientUnits="userSpaceOnUse"
       y1="944.36"
       gradientTransform="translate(2,-2)"
       x2="80"
       y2="957.36">
      <stop
         id="stop3610"
         stop-color="#ccc"
         offset="0" />
      <stop
         id="stop3616"
         stop-color="#e6e6e6"
         offset=".22008" />
      <stop
         id="stop3618"
         stop-color="#fff"
         offset=".46933" />
      <stop
         id="stop3612"
         stop-color="#e6e6e6"
         offset="1" />
    </linearGradient>
  </defs>
  <g
     id="layer1"
     transform="translate(0 -952.36)">
    <g
       id="g3912"
       transform="translate(-17.305 27.338)">
      <g
         id="g3872"
         stroke-linejoin="round"
         fill-rule="evenodd"
         transform="matrix(.86046 0 0 .86207 -1.1948 123.42)"
         stroke="#808080"
         stroke-width="1px">
        <path
           id="path3874"
           fill="url(#linearGradient3046)"
           d="m82 930.36h-60v115h85v-90l-25-25z" />
        <path
           id="path3876"
           fill="url(#linearGradient3048)"
           d="m107 955.36-25-25c1.8633 8.3333 2.1329 16.667 0 25 9.9055-1.935 17.128-0.56751 25 0z" />
      </g>
      <rect
         id="rect3878"
         height="31.256"
         width="70.116"
         y="959.4"
         x="19.247"
         stroke-width="0"
         fill="#a00" />
      <g
         aria-label="         PDF      "
         style="font-size:24.54899979px;line-height:125%;font-family:Sans;letter-spacing:0px;word-spacing:0px;fill:#ffffff"
         id="text3880">
        <path
           d="m 34.729699,968.06621 c 0,2.24154 0,4.48307 0,6.72461 1.719411,-0.10114 3.550264,0.30716 5.148337,-0.49221 2.269701,-1.35548 1.823969,-5.6349 -0.943962,-6.10935 -1.382824,-0.2293 -2.80645,-0.0803 -4.204375,-0.12305 z m -2.421337,-1.98981 c 2.504799,0.0607 5.029342,-0.1565 7.515172,0.19216 2.212407,0.31407 3.991441,2.2692 4.015958,4.51754 0.270214,2.17804 -0.668999,4.69435 -2.880208,5.46542 -1.987777,0.77353 -4.148267,0.46415 -6.229585,0.52911 0,2.39736 0,4.79473 0,7.19209 -0.807112,0 -1.614225,0 -2.421337,0 0,-5.96544 0,-11.93088 0,-17.89632 z"
           id="path3727"
           inkscape:connector-curvature="0" />
        <path
           d="m 49.545404,968.06621 c 0,4.6389 0,9.2778 0,13.9167 2.751924,-0.063 5.822212,0.39056 8.120787,-1.47495 2.071818,-1.87859 2.145471,-4.98018 1.779574,-7.56045 -0.265575,-2.34157 -2.138482,-4.30742 -4.477451,-4.64531 -1.782642,-0.36682 -3.616257,-0.19623 -5.42291,-0.23599 z m -2.421337,-1.98981 c 3.471631,0.10353 7.068012,-0.38976 10.395754,0.8475 2.629472,0.88483 4.29663,3.49513 4.531262,6.18591 0.371992,3.18485 -0.0068,7.0444 -2.811388,9.08102 -3.142828,2.19234 -7.119114,1.72454 -10.750532,1.78189 -0.438619,-0.14306 -1.51363,0.35027 -1.365096,-0.37994 0,-5.83879 0,-11.67759 0,-17.51638 z"
           id="path3729"
           inkscape:connector-curvature="0" />
        <path
           d="m 66.01529,966.0764 c 3.428229,0 6.856459,0 10.284688,0 0,0.67925 0,1.35851 0,2.03776 -2.621117,0 -5.242234,0 -7.863351,0 0,1.75807 0,3.51613 0,5.2742 2.365398,0 4.730797,0 7.096195,0 0,0.67925 0,1.35851 0,2.03776 -2.365398,0 -4.730797,0 -7.096195,0 0,2.84887 0,5.69773 0,8.5466 -0.807112,0 -1.614225,0 -2.421337,0 0,-5.96544 0,-11.93088 0,-17.89632 z"
           id="path3731"
           inkscape:connector-curvature="0" />
      </g>
    </g>
  </g>
  <metadata
     id="metadata19">
    <rdf:RDF>
      <cc:Work>
        <dc:format>image/svg+xml</dc:format>
        <dc:type
           rdf:resource="http://purl.org/dc/dcmitype/StillImage" />
        <cc:license
           rdf:resource="http://creativecommons.org/licenses/publicdomain/" />
        <dc:publisher>
          <cc:Agent
             rdf:about="http://openclipart.org/">
            <dc:title>Openclipart</dc:title>
          </cc:Agent>
        </dc:publisher>
        <dc:title>Icon PDF - Ícone</dc:title>
        <dc:date>2012-08-23T09:00:35</dc:date>
        <dc:description>Icon PDF - Ícone</dc:description>
        <dc:source>https://openclipart.org/detail/171857/icon-pdf---Ícone-by-leandrosciola-171857</dc:source>
        <dc:creator>
          <cc:Agent>
            <dc:title>leandrosciola</dc:title>
          </cc:Agent>
        </dc:creator>
        <dc:subject>
          <rdf:Bag>
            <rdf:li>Icon</rdf:li>
            <rdf:li>Icon PDF</rdf:li>
            <rdf:li>Ícone</rdf:li>
            <rdf:li>Ícone PDF</rdf:li>
          </rdf:Bag>
        </dc:subject>
      </cc:Work>
      <cc:License
         rdf:about="http://creativecommons.org/licenses/publicdomain/">
        <cc:permits
           rdf:resource="http://creativecommons.org/ns#Reproduction" />
        <cc:permits
           rdf:resource="http://creativecommons.org/ns#Distribution" />
        <cc:permits
           rdf:resource="http://creativecommons.org/ns#DerivativeWorks" />
      </cc:License>
    </rdf:RDF>
  </metadata>
</svg>
