<?xml version="1.0" encoding="UTF-8" standalone="no"?>
<svg
   xmlns:dc="http://purl.org/dc/elements/1.1/"
   xmlns:cc="http://creativecommons.org/ns#"
   xmlns:rdf="http://www.w3.org/1999/02/22-rdf-syntax-ns#"
   xmlns:svg="http://www.w3.org/2000/svg"
   xmlns="http://www.w3.org/2000/svg"
   xmlns:sodipodi="http://sodipodi.sourceforge.net/DTD/sodipodi-0.dtd"
   xmlns:inkscape="http://www.inkscape.org/namespaces/inkscape"
   id="svg2"
   viewBox="0 0 74 100"
   version="1.1"
   sodipodi:docname="xls.svg"
   inkscape:version="0.92.4 (5da689c313, 2019-01-14)">
  <sodipodi:namedview
     pagecolor="#ffffff"
     bordercolor="#666666"
     borderopacity="1"
     objecttolerance="10"
     gridtolerance="10"
     guidetolerance="10"
     inkscape:pageopacity="0"
     inkscape:pageshadow="2"
     inkscape:window-width="1916"
     inkscape:window-height="1029"
     id="namedview22"
     showgrid="false"
     inkscape:zoom="2.36"
     inkscape:cx="37"
     inkscape:cy="50"
     inkscape:window-x="0"
     inkscape:window-y="49"
     inkscape:window-maximized="0"
     inkscape:current-layer="g3926" />
  <defs
     id="defs4">
    <linearGradient
       id="linearGradient3046"
       x1="105"
       gradientUnits="userSpaceOnUse"
       y1="123"
       gradientTransform="translate(2 922.36)"
       x2="-80"
       y2="-112">
      <stop
         id="stop3602"
         stop-color="#e6e6e6"
         offset="0" />
      <stop
         id="stop3604"
         stop-color="#f9f9f9"
         offset="1" />
    </linearGradient>
    <linearGradient
       id="linearGradient3048"
       x1="93"
       gradientUnits="userSpaceOnUse"
       y1="944.36"
       gradientTransform="translate(2,-2)"
       x2="80"
       y2="957.36">
      <stop
         id="stop3610"
         stop-color="#ccc"
         offset="0" />
      <stop
         id="stop3616"
         stop-color="#e6e6e6"
         offset=".22008" />
      <stop
         id="stop3618"
         stop-color="#fff"
         offset=".46933" />
      <stop
         id="stop3612"
         stop-color="#e6e6e6"
         offset="1" />
    </linearGradient>
  </defs>
  <g
     id="layer1"
     transform="translate(0 -952.36)">
    <g
       id="g3926"
       transform="translate(-105.3 27.338)">
      <g
         id="g3890"
         stroke-linejoin="round"
         fill-rule="evenodd"
         transform="matrix(.86046 0 0 .86207 86.805 123.42)"
         stroke="#808080"
         stroke-width="1px">
        <path
           id="path3892"
           fill="url(#linearGradient3046)"
           d="m82 930.36h-60v115h85v-90l-25-25z" />
        <path
           id="path3894"
           fill="url(#linearGradient3048)"
           d="m107 955.36-25-25c1.8633 8.3333 2.1329 16.667 0 25 9.9055-1.935 17.128-0.56751 25 0z" />
      </g>
      <rect
         id="rect3896"
         height="31.256"
         width="70.116"
         y="959.4"
         x="107.25"
         stroke-width="0"
         fill="#008000" />
      <g
         aria-label="         XLS      "
         style="font-size:24.54899979px;line-height:125%;font-family:Sans;letter-spacing:0px;word-spacing:0px;fill:#ffffff"
         id="text3898">
        <path
           d="m 121.12949,966.06444 h 2.60114 l 4.44711,6.65268 4.47108,-6.65268 h 2.60114 l -5.75367,8.59454 6.13725,9.30177 h -2.60114 l -5.03446,-7.61162 -5.07043,7.61162 h -2.61312 l 6.38897,-9.55349 z"
           style=""
           id="path24" />
        <path
           d="m 138.82203,966.06444 h 2.42134 V 981.923 h 8.71441 v 2.03775 h -11.13575 z"
           style=""
           id="path26" />
        <path
           d="m 163.2152,966.65179 v 2.3614 q -1.37848,-0.65927 -2.60114,-0.98291 -1.22265,-0.32365 -2.3614,-0.32365 -1.97782,0 -3.05664,0.76716 -1.06682,0.76715 -1.06682,2.1816 0,1.18669 0.70722,1.79802 0.71921,0.59934 2.70902,0.97093 l 1.46239,0.29967 q 2.70902,0.51544 3.99161,1.822 1.29458,1.29458 1.29458,3.47618 0,2.60114 -1.75008,3.94366 -1.73809,1.34252 -5.10638,1.34252 -1.27061,0 -2.70902,-0.28768 -1.42643,-0.28769 -2.96075,-0.85107 v -2.49325 q 1.47438,0.82709 2.88883,1.24663 1.41444,0.41953 2.78094,0.41953 2.07372,0 3.20048,-0.8151 1.12676,-0.8151 1.12676,-2.32544 0,-1.31855 -0.81511,-2.06173 -0.80311,-0.74319 -2.64908,-1.11478 l -1.47438,-0.28768 q -2.70902,-0.53941 -3.91969,-1.69014 -1.21067,-1.15074 -1.21067,-3.20048 0,-2.37339 1.66617,-3.73989 1.67815,-1.3665 4.61492,-1.3665 1.25862,0 2.56518,0.22775 1.30657,0.22775 2.67306,0.68325 z"
           style=""
           id="path28" />
      </g>
    </g>
  </g>
  <metadata
     id="metadata19">
    <rdf:RDF>
      <cc:Work>
        <dc:format>image/svg+xml</dc:format>
        <dc:type
           rdf:resource="http://purl.org/dc/dcmitype/StillImage" />
        <cc:license
           rdf:resource="http://creativecommons.org/licenses/publicdomain/" />
        <dc:publisher>
          <cc:Agent
             rdf:about="http://openclipart.org/">
            <dc:title>Openclipart</dc:title>
          </cc:Agent>
        </dc:publisher>
        <dc:title>Icon XLS - Ícone</dc:title>
        <dc:date>2012-08-23T09:02:04</dc:date>
        <dc:description>Icon XLS - Ícone</dc:description>
        <dc:source>https://openclipart.org/detail/171858/icon-xls---Ícone-by-leandrosciola-171858</dc:source>
        <dc:creator>
          <cc:Agent>
            <dc:title>leandrosciola</dc:title>
          </cc:Agent>
        </dc:creator>
        <dc:subject>
          <rdf:Bag>
            <rdf:li>Icon</rdf:li>
            <rdf:li>Icon XLS</rdf:li>
            <rdf:li>Ícone</rdf:li>
            <rdf:li>Ícone XLS</rdf:li>
          </rdf:Bag>
        </dc:subject>
      </cc:Work>
      <cc:License
         rdf:about="http://creativecommons.org/licenses/publicdomain/">
        <cc:permits
           rdf:resource="http://creativecommons.org/ns#Reproduction" />
        <cc:permits
           rdf:resource="http://creativecommons.org/ns#Distribution" />
        <cc:permits
           rdf:resource="http://creativecommons.org/ns#DerivativeWorks" />
      </cc:License>
    </rdf:RDF>
  </metadata>
</svg>
